<?xml version="1.0" encoding="utf-8"?>
<!-- Generator: Adobe Illustrator 25.4.1, SVG Export Plug-In . SVG Version: 6.00 Build 0)  -->
<svg version="1.1" id="图层_1" xmlns="http://www.w3.org/2000/svg" xmlns:xlink="http://www.w3.org/1999/xlink" x="0px" y="0px"
	 viewBox="0 0 500 500" style="enable-background:new 0 0 500 500;" xml:space="preserve">
<g>
	<g id="XMLID_00000015345970450173960260000008259497369003768232_">
		<g>
			<path d="M466.6,221.6c15.6,0,28.3,12.7,28.3,28.3s-12.7,28.3-28.3,28.3H283.3h-5v5v183.3c0,15.6-12.7,28.3-28.3,28.3
				s-28.3-12.7-28.3-28.3V283.3v-5h-5H33.3C17.7,278.3,5,265.6,5,250s12.7-28.3,28.3-28.3h183.3h5v-5V33.3C221.7,17.7,234.4,5,250,5
				s28.3,12.7,28.3,28.3v183.3v5h5H466.6z"/>
			<path d="M466.5,216.7c18.4,0,33.3,14.9,33.3,33.3s-14.9,33.3-33.3,33.3H283.2v183.3c0,18.4-14.9,33.3-33.3,33.3
				s-33.3-14.9-33.3-33.3V283.3H33.3C14.9,283.3,0,268.4,0,250s14.9-33.3,33.3-33.4h183.4V33.3C216.7,14.9,231.6,0,250,0
				s33.3,14.9,33.3,33.3v183.4H466.5z M494.9,249.9c0-15.6-12.7-28.3-28.3-28.3H283.3h-5v-5V33.3C278.3,17.7,265.6,5,250,5
				s-28.3,12.7-28.4,28.3v183.4v5h-5H33.3C17.7,221.7,5,234.4,5,250s12.7,28.3,28.3,28.3h183.4h5v5v183.2
				c0,15.6,12.7,28.3,28.3,28.3s28.3-12.7,28.3-28.3V283.2v-5h5h183.3C482.2,278.2,494.9,265.5,494.9,249.9z"/>
		</g>
		<g>
		</g>
	</g>
</g>
</svg>
