<?xml version="1.0" encoding="utf-8"?>
<!-- Generator: Adobe Illustrator 25.4.1, SVG Export Plug-In . SVG Version: 6.00 Build 0)  -->
<svg version="1.1" id="Layer_1" xmlns="http://www.w3.org/2000/svg" xmlns:xlink="http://www.w3.org/1999/xlink" x="0px" y="0px"
	 viewBox="0 0 398.5 387.4" style="enable-background:new 0 0 398.5 387.4;" xml:space="preserve">
<style type="text/css">
	.st0{fill:#FFFFFF;stroke:#000000;stroke-width:7;stroke-miterlimit:10;}
	.st1{fill:#FFFFFF;stroke:#000000;stroke-width:10;stroke-miterlimit:10;}
	.st2{fill:#FFFFFF;stroke:#000000;stroke-miterlimit:10;}
</style>
<g id="图层_1">
	<path class="st0" d="M381.5,76.7C381.2,77.1,381.9,76.5,381.5,76.7l-83.9,83.9c-11.9,11.9-29.3,14.7-43.9,8.5L43,379.9l-21.2-21.2
		L232.5,148c-6.2-14.6-3.3-32,8.5-43.9l84.9-84.8c2.3-2.3,6.5-2,9.2,0.7c2.7,2.7,3,6.8,0.7,9.2L258,106.9c-2.9,2.9-2.3,8.3,1.4,12
		s9.1,4.4,12,1.4l77.8-77.8c2.3-2.3,6.5-2,9.2,0.7c2.7,2.7,3.2,7,0.8,9.3l0,0l-77.8,77.8c-2.9,2.9-2.3,8.3,1.4,12s9.1,4.4,12,1.4
		L372.7,66c2.3-2.3,6.5-2,9.2,0.7C384.6,69.5,383.9,74.4,381.5,76.7z"/>
</g>
<g id="图层_2">
	<path class="st1" d="M39.8,25.2l326,326l-21.2,21.2L228.4,256.4C180.2,232.2,45.6,158,39.5,45.2C39.2,38.7,39.2,32.1,39.8,25.2z"/>
	<path class="st2" d="M188.8,48"/>
	<path class="st2" d="M321.4,40.2"/>
</g>
</svg>
