<?xml version="1.0" encoding="utf-8"?>
<!-- Generator: Adobe Illustrator 25.4.1, SVG Export Plug-In . SVG Version: 6.00 Build 0)  -->
<svg version="1.1" id="图层_1" xmlns="http://www.w3.org/2000/svg" xmlns:xlink="http://www.w3.org/1999/xlink" x="0px" y="0px"
	 viewBox="0 0 500 500" style="enable-background:new 0 0 500 500;" xml:space="preserve">
<style type="text/css">
	.st0{stroke:#000000;stroke-width:5;stroke-miterlimit:10;}
	.st1{fill:#FFFFFF;stroke:#000000;stroke-width:5;stroke-miterlimit:10;}
	.st2{fill:#FFFFFF;stroke:#000000;stroke-width:7;stroke-miterlimit:10;}
	.st3{fill:none;stroke:#000000;stroke-width:15;stroke-miterlimit:10;}
</style>
<path class="st0" d="M484.5,96.5v307.1c0,23.1-17.5,41.9-39.1,41.9H54.6c-21.6,0-39.1-18.7-39.1-41.9V96.5
	c0-23.1,17.5-41.9,39.1-41.9h390.8C467,54.6,484.5,73.3,484.5,96.5z"/>
<rect x="87.2" y="86" class="st1" width="325.7" height="325.7"/>
<rect x="19.3" y="102.7" class="st2" width="63.2" height="47.1"/>
<rect x="19.3" y="180.9" class="st2" width="63.2" height="47.1"/>
<rect x="19.3" y="259" class="st2" width="63.2" height="47.1"/>
<rect x="19.3" y="337.2" class="st2" width="63.2" height="47.1"/>
<rect x="417.1" y="102.7" class="st2" width="63.2" height="47.1"/>
<rect x="417.1" y="180.9" class="st2" width="63.2" height="47.1"/>
<rect x="417.1" y="259" class="st2" width="63.2" height="47.1"/>
<rect x="417.1" y="337.2" class="st2" width="63.2" height="47.1"/>
<path class="st3" d="M313.8,250c0,2.5-0.8,4.9-2.3,6.8l0,0l-9.3,4.6l-96.2,47l0,0l-8.4,4.1c-0.1,0-0.2,0-0.4,0
	c-5.4,0-9.9-3.7-11-8.7V194.1c1.8-3.9,5.7-6.6,10.3-6.6c0.5,0,1,0,1.5,0.1l6.5,3.2l97.7,47.9l9.3,4.6l0,0
	C313,245.1,313.8,247.4,313.8,250z"/>
</svg>
