<?xml version="1.0" encoding="utf-8"?>
<!-- Generator: Adobe Illustrator 26.0.0, SVG Export Plug-In . SVG Version: 6.00 Build 0)  -->
<svg version="1.1" id="图层_1" xmlns="http://www.w3.org/2000/svg" xmlns:xlink="http://www.w3.org/1999/xlink" x="0px" y="0px"
	 viewBox="0 0 500 500" style="enable-background:new 0 0 500 500;" xml:space="preserve">
<style type="text/css">
	.st0{fill:none;stroke:#000000;stroke-miterlimit:10;}
	.st1{fill:#FFFFFF;stroke:#000000;stroke-miterlimit:10;}
	.st2{fill:#FFFFFF;stroke:#000000;stroke-width:7;stroke-miterlimit:10;}
</style>
<path class="st0" d="M300,250c0,0.92-0.02,1.83-0.08,2.73C298.51,279.07,276.69,300,250,300c-0.95,0-1.9-0.03-2.84-0.09
	c-0.33-0.01-0.67-0.03-1.01-0.06C220.34,297.89,200,276.32,200,250c0-27.61,22.39-50,50-50c0.83,0,1.66,0.02,2.49,0.06
	c0.32,0.02,0.65,0.04,0.98,0.06c0.19,0.02,0.38,0.03,0.57,0.05c24.82,1.98,44.54,22.1,45.88,47.1C299.98,248.17,300,249.08,300,250z
	"/>
<path class="st1" d="M300,250c0,0.92-0.02,1.83-0.08,2.73v-5.46C299.98,248.17,300,249.08,300,250z"/>
<path class="st1" d="M214.21,214.62c-19.52,19.52-19.52,51.18,0,70.71c8.89,8.89,20.31,13.73,31.94,14.52
	C220.34,297.89,200,276.32,200,250c0-27.61,22.39-50,50-50c0.83,0,1.66,0.02,2.49,0.06C238.73,199.26,224.71,204.11,214.21,214.62z"
	/>
<path class="st0" d="M284.92,285.33c-10.37,10.37-24.17,15.23-37.76,14.58c-0.33-0.01-0.67-0.03-1.01-0.06
	c-11.63-0.79-23.05-5.63-31.94-14.52c-19.52-19.53-19.52-51.19,0-70.71c10.5-10.51,24.52-15.36,38.28-14.56
	c0.32,0.02,0.65,0.04,0.98,0.06c0.19,0.02,0.38,0.03,0.57,0.05c10.42,0.93,20.6,5.12,28.9,12.57c0.67,0.6,1.33,1.23,1.98,1.88
	c0.65,0.65,1.28,1.3,1.88,1.98C304.42,236.23,303.79,266.45,284.92,285.33z"/>
<path class="st0" d="M284.92,285.33c-10.37,10.37-24.17,15.23-37.76,14.58c-0.33-0.01-0.67-0.03-1.01-0.06
	c-11.63-0.79-23.05-5.63-31.94-14.52c-19.52-19.53-19.52-51.19,0-70.71c10.5-10.51,24.52-15.36,38.28-14.56
	c0.32,0.02,0.65,0.04,0.98,0.06c0.19,0.02,0.38,0.03,0.57,0.05c10.42,0.93,20.6,5.12,28.9,12.57c0.67,0.6,1.33,1.23,1.98,1.88
	c0.65,0.65,1.28,1.3,1.88,1.98C304.42,236.23,303.79,266.45,284.92,285.33z"/>
<path class="st1" d="M284.92,214.62c0.65,0.65,1.28,1.31,1.87,1.99l-3.86-3.86C283.61,213.34,284.27,213.97,284.92,214.62z"/>
<path class="st1" d="M299.92,247.27c-1.34-25-21.06-45.12-45.88-47.1c10.42,0.93,20.6,5.12,28.9,12.57c0.67,0.6,1.33,1.23,1.98,1.88
	c0.65,0.65,1.28,1.3,1.88,1.98c17.62,19.63,16.99,49.85-1.88,68.73c-10.37,10.37-24.17,15.23-37.76,14.58
	c0.94,0.06,1.89,0.09,2.84,0.09c26.69,0,48.51-20.93,49.92-47.27c0.06-0.9,0.08-1.81,0.08-2.73
	C300,249.08,299.98,248.17,299.92,247.27z"/>
<path class="st2" d="M429.96,285v-70h-54.69c-2.86-10.26-6.95-20.01-12.11-29.08l38.42-38.42L352.08,98l-38.55,38.55
	c-8.9-5-18.45-8.98-28.49-11.78V68.82h-70v55.81c-10.09,2.77-19.92,6.79-29.24,12.04l-39.56-39.56l-49.5,49.5l39.57,39.56
	c-5.18,9.19-9.16,18.88-11.93,28.83H70.04v70h54.36c2.77,9.93,6.74,19.6,11.91,28.77L97.58,352.5l49.5,49.5l38.72-38.73
	c9.32,5.25,19.15,9.27,29.24,12.05v55.86h70v-55.95c10.05-2.8,19.62-6.79,28.53-11.8l39.4,39.4l49.5-49.49l-39.29-39.3
	c5.15-9.06,9.23-18.79,12.09-29.04H429.96z M254.08,200.17"/>
<circle class="st2" cx="250" cy="250" r="50"/>
</svg>
