<?xml version="1.0" encoding="utf-8"?>
<!-- Generator: Adobe Illustrator 25.4.1, SVG Export Plug-In . SVG Version: 6.00 Build 0)  -->
<svg version="1.1" id="图层_1" xmlns="http://www.w3.org/2000/svg" xmlns:xlink="http://www.w3.org/1999/xlink" x="0px" y="0px"
	 viewBox="0 0 500 500" style="enable-background:new 0 0 500 500;" xml:space="preserve">
<style type="text/css">
	.st0{fill:#9E000C;stroke:#000000;stroke-width:7;stroke-miterlimit:10;}
	.st1{fill:#FFFFFF;stroke:#000000;stroke-width:7;stroke-miterlimit:10;}
</style>
<path class="st0" d="M378,116.7H122c-12.5,0-22.6,10.1-22.6,22.6v331.2c0,12.5,10.1,22.6,22.6,22.6H378c12.5,0,22.6-10.1,22.6-22.6
	V139.2C400.5,126.8,390.4,116.7,378,116.7z M219.9,440.3c0,8.3-13.5,15.1-30.1,15.1s-30.1-6.7-30.1-15.1v-271
	c0-8.3,13.5-15.1,30.1-15.1s30.1,6.7,30.1,15.1V440.3z M340.3,440.3c0,8.3-13.5,15.1-30.1,15.1c-16.6,0-30.1-6.7-30.1-15.1v-271
	c0-8.3,13.5-15.1,30.1-15.1c16.6,0,30.1,6.7,30.1,15.1V440.3z"/>
<path class="st0" d="M417.3,56.4H298.8c-3.9,0-7-2.8-7-6.3V25.1c0-3.5-3.1-6.3-7-6.3h-69.7c-3.9,0-7,2.8-7,6.3v25.1
	c0,3.5-3.1,6.3-7,6.3H82.7c-11.5,0-20.9,8.4-20.9,18.8s9.4,18.8,20.9,18.8h334.5c11.5,0,20.9-8.4,20.9-18.8
	C438.2,64.9,428.8,56.4,417.3,56.4z"/>
<rect x="227.4" y="36.9" class="st1" width="45.2" height="18.1"/>
</svg>
