<?xml version="1.0" encoding="utf-8"?>
<!-- Generator: Adobe Illustrator 26.0.0, SVG Export Plug-In . SVG Version: 6.00 Build 0)  -->
<svg version="1.1" id="图层_1" xmlns="http://www.w3.org/2000/svg" xmlns:xlink="http://www.w3.org/1999/xlink" x="0px" y="0px"
	 viewBox="0 0 500 500" style="enable-background:new 0 0 500 500;" xml:space="preserve">
<style type="text/css">
	.st0{stroke:#000000;stroke-width:5;stroke-miterlimit:10;}
	.st1{fill:#FFFFFF;stroke:#000000;stroke-width:5;stroke-miterlimit:10;}
	.st2{fill:#FFFFFF;stroke:#000000;stroke-width:7;stroke-miterlimit:10;}
	.st3{fill:none;stroke:#000000;stroke-width:5;stroke-miterlimit:10;}
</style>
<path class="st0" d="M430,132.14v235.71c0,17.75-13.43,32.14-30,32.14H100c-16.57,0-30-14.39-30-32.14V132.14
	C70,114.39,83.43,100,100,100h300C416.57,100,430,114.39,430,132.14z"/>
<rect x="125" y="124.08" class="st1" width="250" height="250"/>
<rect x="72.91" y="136.92" class="st2" width="48.52" height="36.17"/>
<rect x="72.91" y="196.92" class="st2" width="48.52" height="36.17"/>
<rect x="72.91" y="256.92" class="st2" width="48.52" height="36.17"/>
<rect x="72.91" y="316.92" class="st2" width="48.52" height="36.17"/>
<rect x="378.24" y="136.92" class="st2" width="48.52" height="36.17"/>
<rect x="378.24" y="196.92" class="st2" width="48.52" height="36.17"/>
<rect x="378.24" y="256.92" class="st2" width="48.52" height="36.17"/>
<rect x="378.24" y="316.92" class="st2" width="48.52" height="36.17"/>
<path class="st3" d="M298.97,249.96c0,1.95-0.65,3.76-1.74,5.21c0,0.01,0,0.01-0.01,0.01l-7.13,3.5l-73.85,36.14
	c-0.01,0-0.01,0.01-0.01,0.01l-6.45,3.16c-0.09,0.01-0.18,0.01-0.27,0.01c-4.13,0-7.59-2.87-8.48-6.71v-84.21
	c1.38-3,4.4-5.08,7.92-5.08c0.39,0,0.78,0.03,1.15,0.08l4.97,2.43l75.03,36.73l7.13,3.5c0.01,0,0.01,0,0.01,0.01
	C298.33,246.2,298.97,248.01,298.97,249.96z"/>
</svg>
