<?xml version="1.0" encoding="utf-8"?>
<!-- Generator: Adobe Illustrator 26.0.0, SVG Export Plug-In . SVG Version: 6.00 Build 0)  -->
<svg version="1.1" xmlns="http://www.w3.org/2000/svg" xmlns:xlink="http://www.w3.org/1999/xlink" x="0px" y="0px"
	 viewBox="0 0 500 500" style="enable-background:new 0 0 500 500;" xml:space="preserve">
<style type="text/css">
	.st0{fill:#FFFFFF;stroke:#000000;stroke-width:5;stroke-miterlimit:10;}
	.st1{fill:#FFFFFF;stroke:#000000;stroke-miterlimit:10;}
</style>
<g id="图层_1">
	<path class="st0" d="M429.62,127.13c-0.32,0.32-0.67,0.59-1.05,0.81l-83.93,83.93c-11.87,11.87-29.34,14.71-43.9,8.54L90.03,431.13
		l-21.21-21.21l210.72-210.72c-6.17-14.56-3.32-32.03,8.54-43.9l84.85-84.85c2.34-2.34,6.46-2.03,9.19,0.71
		c2.74,2.74,3.05,6.85,0.71,9.19l-77.78,77.78c-2.93,2.93-2.3,8.31,1.41,12.02c3.71,3.71,9.09,4.35,12.02,1.41l77.78-77.78
		c2.34-2.34,6.46-2.03,9.19,0.71c2.74,2.74,3.05,6.85,0.71,9.19l0.12,0.12l-77.78,77.78c-2.93,2.93-2.3,8.31,1.41,12.02
		s9.09,4.35,12.02,1.41l77.78-77.78c2.34-2.34,6.46-2.02,9.19,0.71C431.65,120.68,431.96,124.79,429.62,127.13z"/>
</g>
<g id="图层_2">
	<path class="st0" d="M87.22,76.38l326.03,326.03l-21.21,21.21L275.9,307.48C227.61,283.36,93.1,209.1,86.96,96.35
		C86.61,89.88,86.68,83.22,87.22,76.38z"/>
	<path class="st1" d="M236.27,99.15"/>
	<path class="st1" d="M368.81,91.36"/>
</g>
</svg>
