<?xml version="1.0" encoding="utf-8"?>
<!-- Generator: Adobe Illustrator 25.4.1, SVG Export Plug-In . SVG Version: 6.00 Build 0)  -->
<svg version="1.1" id="Layer_1" xmlns="http://www.w3.org/2000/svg" xmlns:xlink="http://www.w3.org/1999/xlink" x="0px" y="0px"
	 viewBox="0 0 500 500" style="enable-background:new 0 0 500 500;" xml:space="preserve">
<style type="text/css">
	.st0{display:none;}
	.st1{fill:#1D2088;}
	.st2{fill:none;stroke:#000000;stroke-width:5;stroke-miterlimit:10;}
	.st3{fill:#FFFFFF;}
	.st4{display:inline;fill:#1D2088;}
</style>
<g id="图层_2" class="st0">
	
		<image style="display:inline;overflow:visible;enable-background:new    ;" width="256" height="256" xlink:href="EBA4CAE1.jpeg"  transform="matrix(1.5625 0 0 1.5625 50 50)">
	</image>
</g>
<g id="图层_1">
	<path class="st1" d="M222.6,376.5c-0.1,0-0.3-0.1-0.4-0.1c-0.1-0.5-0.2-1.1-0.3-1.6L222.6,376.5z"/>
	<path class="st1" d="M222.6,376.5c-0.1,0-0.3-0.1-0.4-0.1c-0.1-0.5-0.2-1.1-0.3-1.6L222.6,376.5z"/>
	<path class="st1" d="M114.8,300.6L114.8,300.6z"/>
	<path d="M109.9,332.4c0,11.4-9.6,15.3-7.9,20.9c2.4,7.7,22.9,7.7,22.8,10.2c-0.1,1.9-11.3,0.7-16.8,7.9c-0.7,0.9-2.9,3.9-2.3,7.6
		c0.6,3.8,4,7,8.7,8.4c2.7,0.9,6.8,2.7,8.4,6.5c3.4,7.9-8.2,15.4-7.1,26.7c1.1,11.4,14.4,18.4,16,19.2c10.5,5.3,20.2,2.9,39.7-1.2
		c53.1-11,63.9-9.9,73.1-5.3c2.7,1.3,12.3,6.3,17.5,16.8c7.9,16,1.1,36.1,0.7,36c-0.2,0,0-3.3-0.5-3.3c-0.3,0-0.7,0.6-1.1,2.4
		c56.8-15.6,106.7-36,163.4-51.6c-15.1-23.4-28.6-18.1-31.1-67.1c-0.5-10.8-0.2-20.9,0.7-30.2c0,0,0,0,0,0
		c11.7-14.2,45.9-59.3,44.9-122.7C438,137.2,386.8,60.4,306.9,37.6c-95-27.2-184.9,35.3-209.8,86.8c-18.8,39-9.2,79.7-9.2,79.7
		c1.9,11.4,5,20.7,7.5,27.2c-2,23.2-9.1,39.1-15.9,49.8c-9.2,14.7-20.7,24.1-17.6,31.7c2.3,5.5,11.4,7.1,19.2,7.6
		c2.1-1.3,8.8-5.3,16.8-3.6c1.8,0.4,4.9,1.1,7.6,3.7C110,324.6,109.9,330.7,109.9,332.4z"/>
	<path class="st1" d="M131.2,185.4L131.2,185.4z"/>
	<path class="st1" d="M4.9,279.5L4.9,279.5z"/>
	<path class="st1" d="M398.8,318.6L398.8,318.6z"/>
	<path class="st1" d="M674.5,304.1"/>
</g>
<g id="图层_4">
	<path class="st2" d="M238.2,193.7"/>
	<g>
		<g>
			<path class="st3" d="M328.4,270.1c0-10.2-4.9-17.8-14.6-22.8c-9.8-5-22.6-8.9-38.5-11.7l-19.9-3.5c-10.3-1.9-21-4.1-31.9-6.6
				c-10.9-2.5-21.1-5.9-30.6-10.3c-9.5-4.3-17.1-10.2-22.9-17.5c-5.8-7.4-8.7-16.8-8.7-28.5c0-11.8,3.5-21.9,10.5-30.5
				c7-8.6,16-15.6,26.9-21.1c10.9-5.5,22.6-9.6,34.9-12.3c12.3-2.7,23.8-4,34.4-4c12.7,0,23.8,0.7,33.4,2.1s18.8,3.5,27.7,6.1
				s18.5,5.9,28.8,9.6l-1.8,38.7h-8.9c-9.2-5.4-18.6-10.4-28.2-15.1c-9.7-4.7-19.7-8.5-30-11.4c-10.3-2.9-21.2-4.3-32.6-4.3
				c-8.7,0-17.1,0.9-25.2,2.6c-8.1,1.7-14.8,5-19.9,9.8s-7.8,11.7-7.8,20.8c0,11,4.8,19.3,14.4,24.8c9.6,5.6,22.1,9.6,37.4,12.2
				l19.9,2.7c9.8,1.9,20.1,4.1,31.1,6.6c11,2.5,21.4,5.9,31.2,10.2c9.8,4.3,17.8,9.9,24,16.9c6.2,7,9.3,15.9,9.3,26.8
				c0,13-4.1,24.4-12.3,33.9c-8.2,9.6-18.7,17.5-31.6,23.7c-12.8,6.2-26.5,10.8-41,13.8c-14.5,3-28,4.5-40.8,4.5
				c-14.2,0-27-1-38.4-3.1c-11.5-2-21.3-4.4-29.6-7c-8.3-2.6-14.8-4.8-19.5-6.6l1.8-40.1h9.1c8.4,5.1,17.8,10,28.2,14.7
				c10.4,4.7,21.1,8.5,32.2,11.5c11.1,3,21.8,4.5,32.1,4.5c10.2,0,20.5-1,30.8-3.1c10.3-2,19-5.9,25.9-11.7
				C324.9,289.7,328.4,281.2,328.4,270.1z M255.3,383.7V75.8h19.9v307.8H255.3z"/>
		</g>
	</g>
</g>
<g id="图层_3" class="st0">
	<path class="st4" d="M353.8,263c0,69.3-57.3,125.4-128.1,125.4c-43.7,0-87.1-23.5-102.4-50.1c-13.1-22.9-12.2-46.2-12.2-46.2
		c0.2-5.2,0.9-9.6,1.5-12.5c-0.2-2.9-0.7-7-2.4-11.7c-2-5.3-4.4-8.2-5.8-10.5c-5.3-8.5-3.8-18.1-2.4-27.6c0,0,2.1-14.4,11-28.5
		c9.1-14.4,50.3-64.2,112.8-63.6C292.1,138.1,353.8,195.1,353.8,263z"/>
	<path class="st4" d="M344.8,446.3c-39.5,10.8-78.9,21.7-118.4,32.5c1.5-8,2.6-19.7-0.9-32.7c-3.7-13.8-10.8-22.5-13.7-26.4
		c-9.3-12.6-18.8-34.7-18.8-76.1c42.4-0.8,84.9-1.6,127.3-2.5c-1.2,8.3-1.9,17.8-1.4,28.2C320.8,404.6,335,431.3,344.8,446.3z"/>
	<path class="st4" d="M122.4,332.4"/>
	<path class="st4" d="M88.5,332.1c-2.3-5,5.9-11.9,12.2-22c4.9-7.8,10.1-19.6,11.2-37.1c8.5,25.7,10.3,42.5,10.5,52.4
		c0.2,10.8-1.3,14.2-2.8,14.4c-1.5,0.3-2.6-3.4-6.1-5c-3.8-1.7-8.3,0-11.3,1.5C96.8,336.4,90.2,335.8,88.5,332.1z"/>
	<path class="st4" d="M213.6,420.3c-1.1-0.4-2.8-1-4.9-1.6c-12.9-3.7-21.4-1.3-44,0.9c-14.8,1.4-20.3,1.3-26.6-1.2
		c-3.1-1.2-10.4-4.2-11.9-10.1c-0.7-2.9,0.7-3.6,1.1-12.7c0.2-5.5-0.2-7.4-0.9-9.2c-1.6-3.6-4.4-6-4.4-6c-2.4-2-3.8-1.8-4.6-3.4
		c-1.1-2.1-0.2-5.5,1.8-7.1c3-2.4,7.8-0.1,8.2-1.1c0.4-1.1-7.3-2.7-9.8-8.2c-1.7-3.8,0.6-6,1.5-16.2c0.7-7.5-0.4-8.7,0.4-10.7
		c1.8-5,12.4-9.1,52-4.6"/>
	<path class="st4" d="M133.8,252.3"/>
	<path class="st4" d="M46,317.7"/>
</g>
</svg>
